PathFileType	4	(X/Y/Z)	s10c0402.trc
DataRate	CameraRate	NumFrames	NumMarkers	Units	OrigDataRate	OrigDataStartFrame	OrigNumFrames
200	200	7	49	mm	200	1000	2000
Frame#	Time	racr			lacr			c7			jug			rlel			rdr			llel			ldr			s2			lic			ric			lasi			rasi			rpsi			lpsi			rgt			lgt			rth1			rth2			rth3			rth4			rlfc			rmfc			rsh1			rsh2			rsh3			rsh4			rlmal			rmmal			rcal			rtoe			rmt5			lth1			lth2			lth4			lth3			llfc			lmfc			llmal			lcal			lmt5			lsh1			lsh2			lsh3			lsh4			ltoe			SBIKE			LBIKE			RBIKE			
		X1	Y1	Z1	X2	Y2	Z2	X3	Y3	Z3	X4	Y4	Z4	X5	Y5	Z5	X6	Y6	Z6	X7	Y7	Z7	X8	Y8	Z8	X9	Y9	Z9	X10	Y10	Z10	X11	Y11	Z11	X12	Y12	Z12	X13	Y13	Z13	X14	Y14	Z14	X15	Y15	Z15	X16	Y16	Z16	X17	Y17	Z17	X18	Y18	Z18	X19	Y19	Z19	X20	Y20	Z20	X21	Y21	Z21	X22	Y22	Z22	X23	Y23	Z23	X24	Y24	Z24	X25	Y25	Z25	X26	Y26	Z26	X27	Y27	Z27	X28	Y28	Z28	X29	Y29	Z29	X30	Y30	Z30	X31	Y31	Z31	X32	Y32	Z32	X33	Y33	Z33	X34	Y34	Z34	X35	Y35	Z35	X36	Y36	Z36	X37	Y37	Z37	X38	Y38	Z38	X39	Y39	Z39	X40	Y40	Z40	X41	Y41	Z41	X42	Y42	Z42	X43	Y43	Z43	X44	Y44	Z44	X45	Y45	Z45	X46	Y46	Z46	X47	Y47	Z47	X48	Y48	Z48	X49	Y49	Z49	
1000	5.0000	683.245584	1347.488812	-77.297351	673.826837	1331.258854	-370.255568	666.308570	1355.278750	-216.511179	653.231615	1209.034666	-215.959919	564.687970	1105.304085	33.892658	626.438595	911.000336	-37.997652	535.985710	1103.945671	-492.458214	627.327164	911.058342	-435.676052	131.304766	1173.913841	-220.603156	291.998989	1170.170653	-377.252544	308.286508	1158.987892	-81.625815	313.535327	1076.008477	-350.550094	291.777263	1074.176513	-92.979047	177.134751	1222.723527	-158.390558	186.099152	1228.454829	-269.597905	176.225192	1065.256631	-36.432154	196.282942	1053.547411	-416.921830	247.980367	933.103970	-18.957142	322.830896	884.983298	-29.385131	361.049073	809.130935	-36.592135	349.542064	911.526342	-32.925896	444.909817	726.799193	-55.677267	441.611347	720.577391	-171.757617	377.959880	633.951391	-24.767743	353.185560	549.804428	-39.422717	291.833848	488.709501	-40.619307	377.189838	539.800974	-68.577927	235.065692	395.348541	-55.276440	254.607262	412.561233	-136.042133	173.621489	377.076016	-99.613038	412.829583	334.884306	-106.912797	331.312223	315.551168	-41.422356	254.431250	929.675438	-429.147534	311.646675	866.182558	-414.153172	340.824735	882.942579	-401.169471	329.522771	779.513950	-407.738700	359.342021	671.781665	-392.961981	360.863404	659.635445	-277.332755	42.671506	453.471728	-392.400045	-1.798440	484.978637	-342.990325	13.176348	305.891900	-398.297436	249.006907	612.287061	-427.568857	200.124568	542.706280	-411.281593	118.480587	504.441564	-408.271994	219.904482	523.969245	-384.702925	68.610385	240.342369	-340.786341	-176.781632	824.630900	-206.511392	-103.781916	80.392310	-417.985354	-103.930190	80.488346	-18.328293	
1001	5.0050	681.477110	1348.249941	-77.939096	674.557580	1332.114379	-371.419833	665.878995	1355.814123	-217.320305	653.557486	1209.917614	-218.281018	563.636595	1105.453175	31.732930	626.450650	911.097784	-38.424968	536.722527	1104.116421	-493.419353	627.285643	910.989299	-435.107986	131.521779	1174.164577	-217.895472	290.381813	1170.383438	-376.599384	310.369594	1157.903774	-81.552921	312.037300	1076.153768	-349.778967	293.123848	1072.733770	-92.481653	177.546103	1222.576663	-155.383081	185.676984	1228.782098	-267.425439	177.447951	1063.576125	-35.277044	195.944978	1054.274311	-414.910543	247.614143	928.564661	-18.748005	320.600204	878.315708	-29.590752	355.913465	800.994845	-37.806330	348.198479	903.763322	-33.160732	436.406991	715.011943	-57.341367	432.415302	709.200408	-172.319721	371.345147	620.854973	-26.172888	347.412501	536.531462	-41.734231	287.343945	474.571766	-41.880178	370.150470	527.106953	-71.472132	232.370854	382.472488	-55.614752	251.289531	399.741680	-136.729362	171.051686	363.497108	-99.905180	411.091482	325.437511	-106.155896	329.559941	304.045944	-41.529025	256.256798	931.487340	-427.733234	314.264272	868.835222	-412.204432	343.803881	886.562027	-400.311088	335.142193	783.457738	-407.395296	366.813683	675.757898	-391.406657	367.525262	664.954534	-274.665014	46.904978	463.207340	-392.299624	2.955420	495.500747	-342.880922	14.246346	316.292028	-398.379331	257.479904	616.291962	-425.466476	206.947146	548.099264	-409.687120	124.587801	511.427254	-407.708729	226.851198	529.993415	-382.892100	68.513122	249.535875	-340.835809	-179.109058	823.706926	-208.958659	-103.733862	80.348478	-417.947830	-103.939571	80.518533	-18.307597	
1002	5.0100	679.749299	1348.889024	-78.611405	675.352634	1332.931512	-372.565320	665.241681	1356.170604	-217.385572	653.740474	1210.651168	-220.252952	562.505319	1105.639420	29.778000	626.469879	911.106902	-38.608179	537.373360	1103.871624	-493.281510	627.266024	910.938436	-434.561744	131.767719	1174.118777	-215.157838	288.859511	1170.377823	-375.836713	312.360444	1156.871397	-81.294924	310.617512	1076.187568	-348.868269	294.640691	1071.162669	-92.079844	179.977870	1220.311051	-155.493396	185.314672	1228.684428	-265.561885	178.784130	1061.615513	-34.108238	195.618493	1054.645812	-412.915117	247.690214	924.335641	-18.009648	318.526215	871.529900	-29.775426	351.048126	792.879626	-38.907012	347.193281	896.177891	-33.078968	427.879805	703.335082	-59.222268	422.871174	697.577874	-172.845967	364.343026	608.033008	-27.737222	341.355262	523.608917	-43.640009	282.305341	460.499781	-42.859954	363.854952	514.590880	-73.785062	229.176407	369.996164	-55.978872	248.329316	387.479730	-137.249602	168.202796	350.505059	-100.071495	408.550572	314.531539	-106.926914	327.368996	292.921717	-41.449436	257.745457	933.135255	-426.066680	317.294941	871.740964	-411.105165	346.552755	890.005672	-399.364043	339.817572	786.670283	-406.359752	374.202936	679.942424	-389.857650	373.741312	670.342325	-271.928626	51.252316	473.169812	-392.268209	7.738319	506.237511	-343.507204	16.220389	326.983052	-398.432186	265.787891	620.621732	-423.732869	213.881086	553.630254	-408.300790	130.675693	518.446170	-407.081433	232.930251	535.587794	-380.713127	69.184696	258.981352	-340.789429	-180.582782	823.139486	-210.615935	-103.634056	80.598022	-418.218667	-103.932732	80.494075	-18.316537	
1003	5.0150	678.053548	1349.422536	-79.429803	676.020049	1333.664757	-373.756775	664.620945	1356.789560	-218.319847	653.722763	1211.386879	-222.542377	561.318468	1105.751585	27.675779	626.491494	911.080644	-38.726369	538.289112	1104.117932	-494.243704	627.253119	910.935730	-434.148611	132.041671	1174.345374	-212.936207	287.444353	1170.186159	-375.002442	314.474676	1155.671071	-81.069112	309.220941	1075.823722	-347.939161	296.271334	1069.443184	-91.623153	181.918129	1219.518207	-156.369240	184.851183	1228.355812	-263.694695	180.308106	1059.066254	-32.984600	195.317926	1054.796070	-410.898191	247.720711	919.857087	-17.564432	316.547733	864.467856	-30.014217	346.170999	784.713134	-40.180449	346.131730	888.014464	-33.604712	419.138754	691.769800	-61.101434	414.020863	686.349346	-173.154632	356.701252	596.125985	-29.312969	334.843677	511.326330	-45.143748	276.922688	447.392119	-43.525821	358.197308	502.759567	-75.247486	225.748794	357.788609	-56.504570	243.270234	374.955523	-138.347735	165.106699	338.312141	-100.324622	405.689150	304.297563	-106.821311	324.669934	282.020392	-41.360005	259.298684	934.819564	-424.642379	320.096605	874.501633	-410.022405	349.037933	893.362932	-398.518857	344.206959	789.758461	-405.297817	381.350768	683.915500	-388.544562	379.797459	675.179940	-268.869579	55.559507	483.077957	-392.019463	12.323822	516.627630	-343.322091	18.641008	337.392534	-398.404307	273.973094	625.015843	-422.148612	220.656960	559.129675	-406.689732	137.262409	525.658395	-406.679319	237.618315	540.568468	-377.618439	70.809323	268.729918	-340.789269	-180.718663	823.070004	-210.775763	-103.650934	80.595240	-418.206067	-103.918008	80.496899	-18.320875	
1004	5.0200	676.396180	1349.879306	-80.350062	676.650395	1334.363590	-374.906406	663.957182	1357.264348	-219.255289	653.443787	1212.066086	-224.598652	559.845092	1106.134026	26.492195	626.436572	911.053999	-38.851198	539.378862	1104.803704	-496.003253	627.296042	911.020223	-433.856524	131.994557	1173.631098	-210.357278	286.018903	1169.693130	-374.121600	316.614368	1154.320348	-80.807024	305.933948	1074.494840	-345.659511	298.095866	1067.662671	-91.126116	181.562716	1218.222620	-152.459865	184.379832	1227.718144	-261.970790	181.749470	1056.397752	-31.207110	194.821940	1054.581934	-408.504098	247.913297	915.095669	-17.089160	314.611316	857.297194	-30.340600	341.386147	776.616885	-41.494504	345.043599	879.826341	-34.275759	410.342540	680.790533	-63.070404	400.261895	674.492935	-174.859310	348.211209	587.341165	-30.027550	328.186353	501.988189	-45.517529	271.814462	436.886726	-43.894827	352.203952	493.644559	-75.129308	221.874240	346.217974	-56.509876	239.515286	363.083122	-138.784494	161.543743	326.513904	-100.511645	402.384209	293.814661	-106.637615	321.327091	270.959336	-41.433280	260.730556	936.242116	-423.172869	322.740117	877.125035	-408.901111	351.414642	896.582295	-397.660102	347.837424	792.340081	-403.691802	388.521989	687.910768	-387.125262	384.847655	680.837195	-266.840323	59.906402	492.671064	-391.610490	16.909033	526.982759	-343.142382	21.705437	347.801614	-398.416363	281.910812	629.568537	-420.541137	227.005090	563.685283	-404.115132	143.377878	532.766899	-406.055314	243.380401	546.472136	-375.375081	73.285212	278.776178	-340.952689	-180.749066	823.073582	-210.859308	-103.631441	80.591851	-418.199301	-103.910979	80.464140	-18.310971	
1005	5.0250	674.790977	1350.174809	-81.388490	677.223594	1335.210473	-376.100982	663.215348	1357.702548	-220.180373	652.945952	1212.614173	-226.240428	558.688580	1106.152158	24.454275	626.410074	910.977298	-38.883230	540.417961	1105.137695	-497.030461	627.330989	911.166563	-433.691828	131.766816	1171.962956	-208.200088	285.674026	1169.522399	-374.221763	318.829854	1152.911471	-80.636078	303.992112	1073.704396	-344.223000	300.056199	1065.890362	-90.659212	182.211944	1216.588230	-149.674100	183.842159	1226.841030	-260.191071	183.601503	1053.284021	-30.089295	194.396587	1054.287173	-406.547780	248.126068	909.880587	-16.648788	312.753287	850.020106	-30.832377	336.388859	768.459007	-42.975098	343.887235	871.449531	-35.203026	401.600993	671.016456	-65.290766	387.059690	663.335354	-176.685492	338.917929	579.810071	-30.874559	320.909202	493.906595	-45.495406	265.720163	427.703364	-44.155940	345.666456	485.606762	-74.419337	217.564534	335.014749	-56.807999	235.539056	351.869040	-139.299426	157.605650	315.438605	-100.687033	398.556670	283.703740	-105.767248	317.451568	260.329835	-41.361840	262.051878	937.503140	-421.769601	325.273167	879.289715	-407.183470	353.553863	899.349332	-395.865988	351.983421	795.244559	-402.739326	395.687447	691.894276	-385.851873	390.431889	686.018887	-264.613108	64.579796	502.836872	-391.274815	21.615257	537.302370	-343.037483	25.465964	358.178640	-398.508087	289.712827	634.373047	-419.014515	233.471294	569.589667	-402.620040	148.893308	539.845268	-404.969087	248.969359	552.505203	-372.958717	76.623571	288.788461	-340.881135	-180.633930	823.099728	-210.623237	-103.632573	80.593630	-418.215656	-103.914424	80.468175	-18.306323	
1006	5.0300	673.240328	1350.355033	-82.555146	677.695181	1336.042975	-377.288216	662.472452	1358.134368	-221.153695	652.559725	1213.164727	-228.179451	557.587930	1106.150110	22.556687	628.243583	911.760556	-37.264831	541.559858	1105.461404	-498.066502	627.405631	911.289471	-433.601738	132.043322	1170.565069	-206.236464	284.134827	1168.549458	-373.319603	321.375872	1150.891681	-81.784213	301.335734	1072.182129	-341.417567	302.243590	1064.058653	-90.177495	183.008847	1214.844210	-147.577845	183.495268	1225.083256	-258.082506	185.719771	1049.889240	-29.062041	193.892367	1053.805718	-404.797214	248.221598	904.517169	-16.234155	310.793414	842.559653	-31.500733	331.489261	760.424705	-44.462015	342.144165	862.954285	-36.844632	392.935382	663.101957	-67.790712	376.923540	655.300474	-178.009739	328.823937	572.519359	-31.694773	313.263161	486.102577	-45.200335	259.418864	418.437626	-44.563146	338.956646	477.836093	-73.545454	212.982709	324.565806	-56.636053	231.202601	340.912914	-139.521926	154.160491	304.274631	-101.621714	394.359156	273.280037	-105.851824	313.196632	250.027287	-41.356034	263.254523	938.478624	-420.124157	327.604703	881.841520	-406.577801	355.631500	902.300000	-394.650929	355.936288	798.064368	-401.943580	402.870989	695.976836	-384.619503	395.804402	690.852109	-262.716475	69.683592	513.058534	-391.127921	26.134177	547.279712	-342.793768	29.830634	368.288836	-398.470777	297.307177	639.589765	-417.742736	239.828109	575.747329	-401.283335	154.699824	547.583703	-404.215806	254.712360	558.746490	-371.314846	80.826361	298.693989	-340.944697	-180.655843	823.073485	-210.660687	-103.634975	80.593636	-418.184995	-103.905381	80.473144	-18.312815	
